
<svg version="1.1" id="Layer_1" xmlns="http://www.w3.org/2000/svg" xmlns:xlink="http://www.w3.org/1999/xlink" x="0px" y="0px"
	 width="600px" height="47.9px" viewBox="0 0 600 47.9" enable-background="new 0 0 600 47.9" xml:space="preserve">
<g>
	<path fill="#DFE3EA" d="M0,40.9c3.8,3.3,7.7,4.6,12,4.6c6.2,0,11.3-3.1,11.3-9.9c0-6.5-4.3-8.8-11-11.3c-7.3-2.8-12.3-5.4-12.3-13
		C0.1,4,6.2,0.2,12.8,0.2c4.1,0,8.2,1.3,10.7,3.5v3c-3.4-2.9-6.7-4.1-10.7-4.1c-5.6,0-10.2,3.1-10.2,8.8c0,5.2,2.7,7.7,10.4,10.6
		c7.9,2.9,12.8,5.6,12.8,13.8c0,8.1-6.3,12.2-13.8,12.2c-4.9,0-9.3-1.6-12-3.8V40.9z"/>
	<path fill="#DFE3EA" d="M49.5,47.3h-2.7V3.1H30.9V0.8h34.4v2.3H49.5V47.3z"/>
	<path fill="#DFE3EA" d="M76.4,47.3h-2.7V0.9c1.8-0.4,4.9-0.7,6.9-0.7c11,0,17.4,4.7,17.4,13.8c0,7.8-4.9,12.4-11.2,13.7l17,19.6
		h-3.4l-16.4-19h-7.7V47.3z M76.4,26H82c8.1,0,13.3-4.1,13.3-12c0-7.6-5.5-11.6-14.6-11.6c-1.3,0-3.1,0.2-4.2,0.3V26z"/>
	<path fill="#DFE3EA" d="M137.2,44.9v2.3H112V0.8h25v2.3h-22.4v19.1h21v2.3h-21v20.3H137.2z"/>
	<path fill="#DFE3EA" d="M152.1,33.2l-5.4,14.1H144l18.2-46.5h3.2l18.4,46.5h-2.7l-5.6-14.1H152.1z M163.7,3.2l-10.6,27.6h21.5
		L163.7,3.2z"/>
	<path fill="#DFE3EA" d="M214.9,47.3L200.1,3.6l-8,43.7h-2.7L198,0.8h3.8l14.6,43l14.5-43h3.8l8.5,46.5h-2.7l-8-44l-14.7,44H214.9z"
		/>
	<path fill="#DFE3EA" d="M256.1,47.3h-2.7V0.8h2.7V47.3z"/>
	<path fill="#DFE3EA" d="M304.1,43.4V0.8h2.6v46.5h-2.7L273.2,4.6v42.6h-2.6V0.8h2.7L304.1,43.4z"/>
	<path fill="#DFE3EA" d="M354.1,6.8c-3.4-3-8.3-4.2-12.8-4.2c-11.3,0-20.7,8.4-20.7,21.7c0,13.2,9.7,21.2,21.4,21.2
		c4.8,0,7.7-0.6,11.2-2.2V27.9h2.6v16.8c-3.8,2-7.9,3.1-13.8,3.1c-13.9,0-24.1-9.7-24.1-23.6c0-14.1,10-24.1,23.3-24.1
		c4.7,0,9.2,1.1,12.8,3.5V6.8z"/>
	<path fill="#FF2957" d="M402.7,47.3l-9-29.2l-4,29.2h-11.5l6.3-46.5h13.9l9.7,31.5l9.2-31.5h14l6.3,46.5h-11.6L422,18.1l-9,29.2
		H402.7z"/>
	<path fill="#FF2957" d="M476.3,37v10.3H445V0.8h30.8V11h-19.2v8H474v10h-17.5v8H476.3z"/>
	<path fill="#FF2957" d="M484.5,1.2c3.4-0.5,9.9-1.2,15.6-1.2c15.5,0,26.1,8,26.1,23.6c0,17-11,24.3-26.4,24.3
		c-5.6,0-11.7-0.3-15.3-1.1V1.2z M496.2,37.5c1.4,0.2,3.4,0.2,5,0.2c7.7,0,13-4.5,13-14.2c0-8.9-5.9-12.8-13.2-12.8
		c-1.5,0-3.4,0.1-4.8,0.2V37.5z"/>
	<path fill="#FF2957" d="M545.1,47.3h-11.7V0.8h11.7V47.3z"/>
	<path fill="#FF2957" d="M565.3,38.4l-3.2,8.8h-12.3l18.1-46.5h14L600,47.3h-12.8l-3.1-8.8H565.3z M574.9,12.4l-6,16.5h11.9
		L574.9,12.4z"/>
</g>
</svg>
